<!DOCTYPE svg PUBLIC "-//W3C//DTD SVG 20010904//EN" "http://www.w3.org/TR/2001/REC-SVG-20010904/DTD/svg10.dtd">
<svg version="1.0" xmlns="http://www.w3.org/2000/svg" width="163px" height="162px" viewBox="0 0 1630 1620" preserveAspectRatio="xMidYMid meet">
<g id="layer101" fill="#33cc99" stroke="none">
 <path d="M30 805 l0 -775 790 0 790 0 0 775 0 775 -790 0 -790 0 0 -775z m1570 0 l0 -765 -780 0 -780 0 0 765 0 765 780 0 780 0 0 -765z"/>
 <path d="M130 1333 c0 -4 101 -244 224 -533 l223 -525 471 -3 472 -2 0 40 0 40 -195 0 -195 0 0 495 0 495 -59 0 -59 0 -74 -175 -73 -175 -249 2 -249 3 -72 170 -72 170 -46 3 c-26 2 -47 -1 -47 -5z m907 -980 c-2 -2 -81 -2 -175 -1 l-171 3 172 407 172 408 3 -407 c1 -223 1 -408 -1 -410z m-212 530 c-9 -21 -57 -137 -107 -258 -50 -121 -94 -223 -98 -227 -3 -4 -55 108 -114 250 -60 141 -111 260 -113 265 -2 4 97 7 222 7 l225 0 -15 -37z"/>
 <path d="M510 845 l0 -45 45 0 45 0 0 45 0 45 -45 0 -45 0 0 -45z"/>
 <path d="M630 845 l0 -45 45 0 45 0 0 45 0 45 -45 0 -45 0 0 -45z"/>
 <path d="M510 725 l0 -45 45 0 45 0 0 45 0 45 -45 0 -45 0 0 -45z"/>
 <path d="M630 725 l0 -45 45 0 45 0 0 45 0 45 -45 0 -45 0 0 -45z"/>
 </g>

</svg>